# File created by Blade
# Date/Time:  Wed Sep 24 20:21:23 2014
# Frame Rate: 120.000 fps
#------------------------------------------------------
:FULLY-SPECIFIED
:DEGREES
379
root -8.790724 32.092946 -7.342430 7.861912 13.601596 25.412573
Spine 35.776619 -10.661882 -29.288022
Head -52.071663 5.608922 14.556020
LeftShoulder 18.610974 -8.353099 9.178906
LeftArm 34.056203 -30.958237 -66.377312
LeftForeArm -67.546832 0.000000 11.256736
LeftHand -18.722699 -0.000000 -38.686214
LeftHandThumb1 -26.253704 0.000000 33.147579
RightShoulder -16.114999 18.784933 -23.944756
RightArm -9.985259 -21.439003 72.560711
RightForeArm -25.835498 -0.000000 20.797384
RightHand -5.221427 0.000000 2.787124
RightHandThumb1 -24.326973 -0.000000 -32.862282
LeftUpLeg -132.942596 11.562952 -40.277967
LeftLeg 99.420761 -0.000000 -0.000000
LeftFoot 38.381872 18.996814 -9.969134
LeftToeBase 4.043547 -0.000000 -0.000000
RightUpLeg -22.957161 -7.460258 -16.232213
RightLeg 42.378727 -0.000000 -0.000000
RightFoot -22.988556 -20.905501 -4.555174
RightToeBase 0.569311 -0.000000 -0.000000
380
root -8.781925 32.103248 -7.338716 7.873251 13.631337 25.577238
Spine 35.624596 -10.728284 -29.443283
Head -51.840310 5.561157 14.706126
LeftShoulder 18.547991 -8.518467 9.279248
LeftArm 33.950812 -31.515984 -66.303143
LeftForeArm -66.793127 -0.000000 11.344337
LeftHand -18.497293 -0.000000 -38.984183
LeftHandThumb1 -26.253704 0.000000 33.147579
RightShoulder -16.069660 18.773583 -23.952505
RightArm -10.051791 -21.169998 72.200473
RightForeArm -25.868550 -0.000000 20.639028
RightHand -5.215010 -0.000000 2.847121
RightHandThumb1 -24.326973 -0.000000 -32.862282
LeftUpLeg -133.163216 11.577275 -40.248309
LeftLeg 98.961048 -0.000000 -0.000000
LeftFoot 38.509741 18.676470 -9.682289
LeftToeBase 3.839051 -0.000000 -0.000000
RightUpLeg -22.900217 -7.489068 -16.412367
RightLeg 42.371668 -0.000000 -0.000000
RightFoot -22.969479 -20.935685 -4.580642
RightToeBase 0.583512 -0.000000 -0.000000
381
root -8.770945 32.112805 -7.333671 7.893116 13.694564 25.747882
Spine 35.458190 -10.828622 -29.578260
Head -51.623853 5.487399 14.768086
LeftShoulder 18.492384 -8.634694 9.318530
LeftArm 33.851471 -32.108208 -66.199723
LeftForeArm -66.216336 -0.000000 11.608485
LeftHand -18.557977 -0.000000 -38.881692
LeftHandThumb1 -26.253704 0.000000 33.147579
RightShoulder -16.026338 18.718000 -23.981224
RightArm -10.105994 -20.880223 71.824783
RightForeArm -25.864205 -0.000000 20.505662
RightHand -5.125960 -0.000000 3.017698
RightHandThumb1 -24.326973 -0.000000 -32.862282
LeftUpLeg -133.396044 11.554546 -40.205837
LeftLeg 98.489270 -0.000000 -0.000000
LeftFoot 38.609323 18.428532 -9.339512
LeftToeBase 3.773496 -0.000000 -0.000000
RightUpLeg -22.838273 -7.442401 -16.604179
RightLeg 42.383549 -0.000000 -0.000000
RightFoot -22.967076 -21.026275 -4.504801
RightToeBase 0.584019 -0.000000 -0.000000
382
root -8.753538 32.125777 -7.329857 7.938219 13.785515 25.993144
Spine 35.310215 -10.917751 -29.772699
Head -51.428369 5.393477 14.880154
LeftShoulder 18.410172 -8.726764 9.437401
LeftArm 33.801490 -32.478319 -66.053897
LeftForeArm -65.898672 -0.000000 11.836052
LeftHand -18.442996 -0.000000 -38.885750
LeftHandThumb1 -26.253704 0.000000 33.147579
RightShoulder -16.022656 18.664736 -23.980820
RightArm -10.191773 -20.621662 71.425276
RightForeArm -25.910544 -0.000000 20.395501
RightHand -5.009918 -0.000000 3.083730
RightHandThumb1 -24.326973 -0.000000 -32.862282
LeftUpLeg -133.589235 11.520255 -40.184270
LeftLeg 97.957292 -0.000000 -0.000000
LeftFoot 38.781565 18.318331 -9.285396
LeftToeBase 3.540498 -0.000000 -0.000000
RightUpLeg -22.768109 -7.416965 -16.886155
RightLeg 42.413987 -0.000000 -0.000000
RightFoot -22.945720 -21.184934 -4.481512
RightToeBase 0.506050 -0.000000 -0.000000
383
root -8.740896 32.136464 -7.323969 7.970477 13.862795 26.169674
Spine 35.134845 -11.017164 -29.890880
Head -51.237270 5.301053 14.948643
LeftShoulder 18.321364 -8.842531 9.504408
LeftArm 33.799413 -32.979378 -66.007575
LeftForeArm -65.580354 -0.000000 12.053837
LeftHand -18.448902 -0.000000 -38.845296
LeftHandThumb1 -26.253704 0.000000 33.147579
RightShoulder -15.990756 18.634149 -24.008356
RightArm -10.307361 -20.327344 71.032987
RightForeArm -25.968140 -0.000000 20.320461
RightHand -5.122303 0.000000 3.212920
RightHandThumb1 -24.326973 -0.000000 -32.862282
LeftUpLeg -133.819105 11.491056 -40.094046
LeftLeg 97.392488 -0.000000 -0.000000
LeftFoot 38.939410 18.340981 -9.148573
LeftToeBase 3.612921 -0.000000 -0.000000
RightUpLeg -22.703476 -7.422568 -17.077892
RightLeg 42.398451 -0.000000 -0.000000
RightFoot -22.934618 -21.233619 -4.445337
RightToeBase 0.539880 -0.000000 -0.000000
384
root -8.729610 32.146377 -7.317158 7.995237 13.933483 26.360863
Spine 34.947961 -11.060566 -30.021023
Head -50.973041 5.173691 15.047991
LeftShoulder 18.269041 -9.042726 9.613745
LeftArm 33.727984 -33.393015 -65.933295
LeftForeArm -65.366517 -0.000000 12.249625
LeftHand -18.453823 -0.000000 -38.676775
LeftHandThumb1 -26.253704 0.000000 33.147579
RightShoulder -15.973892 18.558630 -24.038094
RightArm -10.416454 -19.972214 70.650844
RightForeArm -26.014482 -0.000000 20.217291
RightHand -5.166458 -0.000000 3.247005
RightHandThumb1 -24.326973 -0.000000 -32.862282
LeftUpLeg -134.045623 11.485642 -39.978755
LeftLeg 96.806564 -0.000000 -0.000000
LeftFoot 39.106654 18.403942 -9.094835
LeftToeBase 3.412152 -0.000000 -0.000000
RightUpLeg -22.626560 -7.351761 -17.287059
RightLeg 42.393953 -0.000000 -0.000000
RightFoot -22.923839 -21.367350 -4.412457
RightToeBase 0.526394 -0.000000 -0.000000
385
root -8.714733 32.157862 -7.312038 8.034966 14.038491 26.572570
Spine 34.752805 -11.154241 -30.151286
Head -50.683274 5.007917 15.083747
LeftShoulder 18.188058 -9.125699 9.728783
LeftArm 33.849509 -33.895082 -65.970215
LeftForeArm -65.296735 -0.000000 12.423583
LeftHand -18.226444 -0.000000 -38.761392
LeftHandThumb1 -26.253704 0.000000 33.147579
RightShoulder -15.907184 18.454012 -24.057327
RightArm -10.542600 -19.594363 70.253711
RightForeArm -26.114902 0.000000 20.139189
RightHand -5.144165 0.000000 3.092745
RightHandThumb1 -24.326973 -0.000000 -32.862282
LeftUpLeg -134.251023 11.425228 -39.872647
LeftLeg 96.153686 -0.000000 -0.000000
LeftFoot 39.309927 18.519892 -8.992069
LeftToeBase 3.009875 -0.000000 -0.000000
RightUpLeg -22.542915 -7.320431 -17.518341
RightLeg 42.386016 -0.000000 -0.000000
RightFoot -22.912033 -21.520526 -4.397776
RightToeBase 0.560921 -0.000000 -0.000000
386
root -8.699301 32.169770 -7.310377 8.099431 14.174155 26.811570
Spine 34.553570 -11.243365 -30.283007
Head -50.356078 4.885532 15.169847
LeftShoulder 18.202649 -9.398116 9.815512
LeftArm 33.654599 -34.228092 -65.737456
LeftForeArm -65.333159 0.000000 12.636299
LeftHand -18.165768 -0.000000 -38.581657
LeftHandThumb1 -26.253704 0.000000 33.147579
RightShoulder -15.908123 18.395163 -24.108688
RightArm -10.714857 -19.309782 69.866118
RightForeArm -26.073227 0.000000 20.084560
RightHand -5.269855 -0.000000 3.080647
RightHandThumb1 -24.326973 -0.000000 -32.862282
LeftUpLeg -134.430276 11.349794 -39.767748
LeftLeg 95.430582 -0.000000 -0.000000
LeftFoot 39.550275 18.528576 -8.933852
LeftToeBase 2.863208 -0.000000 -0.000000
RightUpLeg -22.472447 -7.355628 -17.770766
RightLeg 42.386218 -0.000000 -0.000000
RightFoot -22.893892 -21.639163 -4.384544
RightToeBase 0.506577 -0.000000 -0.000000
387
root -8.688039 32.180988 -7.306770 8.174578 14.291451 27.023294
Spine 34.291026 -11.310829 -30.395694
Head -49.948136 4.704658 15.278597
LeftShoulder 18.202968 -9.519878 9.919704
LeftArm 33.751203 -34.844343 -65.754525
LeftForeArm -65.074532 -0.000000 12.854010
LeftHand -18.153493 -0.000000 -38.449352
LeftHandThumb1 -26.253704 0.000000 33.147579
RightShoulder -15.883827 18.293529 -24.124683
RightArm -10.859265 -18.933011 69.444755
RightForeArm -25.877811 -0.000000 20.028717
RightHand -5.439876 -0.000000 3.164391
RightHandThumb1 -24.326973 -0.000000 -32.862282
LeftUpLeg -134.635234 11.281559 -39.645820
LeftLeg 94.637577 -0.000000 -0.000000
LeftFoot 39.688356 18.639571 -8.902090
LeftToeBase 3.264849 -0.000000 -0.000000
RightUpLeg -22.403580 -7.340581 -17.983424
RightLeg 42.341793 -0.000000 -0.000000
RightFoot -22.867908 -21.850848 -4.434471
RightToeBase 0.464234 -0.000000 -0.000000
388
root -8.674615 32.192970 -7.302250 8.259918 14.405284 27.243832
Spine 34.019903 -11.381794 -30.511936
Head -49.579340 4.524024 15.415298
LeftShoulder 18.221084 -9.677032 10.016262
LeftArm 33.663304 -35.235360 -65.481365
LeftForeArm -64.995241 -0.000000 13.069679
LeftHand -18.029802 -0.000000 -38.218719
LeftHandThumb1 -26.253704 0.000000 33.147579
RightShoulder -15.865770 18.166400 -24.118351
RightArm -10.974565 -18.521139 69.000033
RightForeArm -25.901231 -0.000000 19.956770
RightHand -5.598819 -0.000000 3.169364
RightHandThumb1 -24.326973 -0.000000 -32.862282
LeftUpLeg -134.882725 11.195239 -39.561786
LeftLeg 93.880425 -0.000000 -0.000000
LeftFoot 39.819236 18.632747 -8.619505
LeftToeBase 2.681909 -0.000000 -0.000000
RightUpLeg -22.344706 -7.347940 -18.210760
RightLeg 42.316978 -0.000000 -0.000000
RightFoot -22.851152 -22.006453 -4.476600
RightToeBase 0.520697 -0.000000 -0.000000
389
root -8.660702 32.207180 -7.298172 8.327469 14.526488 27.477749
Spine 33.781924 -11.455618 -30.649788
Head -49.177466 4.453163 15.513551
LeftShoulder 18.275685 -9.915270 10.074776
LeftArm 33.497109 -35.660046 -65.120006
LeftForeArm -64.824089 0.000000 13.271458
LeftHand -17.810441 0.000000 -38.015772
LeftHandThumb1 -26.253704 0.000000 33.147579
RightShoulder -15.881366 18.131423 -24.164657
RightArm -11.172247 -18.218010 68.622813
RightForeArm -25.961334 -0.000000 19.884566
RightHand -5.571141 -0.000000 3.065223
RightHandThumb1 -24.326973 -0.000000 -32.862282
LeftUpLeg -135.069141 11.134249 -39.432788
LeftLeg 93.027384 -0.000000 -0.000000
LeftFoot 39.920929 18.644352 -8.539197
LeftToeBase 3.070002 -0.000000 -0.000000
RightUpLeg -22.259044 -7.418626 -18.451431
RightLeg 42.279607 -0.000000 -0.000000
RightFoot -22.840678 -22.107927 -4.499728
RightToeBase 0.514439 -0.000000 -0.000000
390
root -8.647581 32.222785 -7.291486 8.376599 14.637373 27.727400
Spine 33.547336 -11.457473 -30.828336
Head -48.757185 4.384264 15.699591
LeftShoulder 18.340305 -9.957330 10.256062
LeftArm 33.713457 -36.379152 -65.066737
LeftForeArm -64.399453 -0.000000 13.401626
LeftHand -17.696852 0.000000 -37.711373
LeftHandThumb1 -26.253704 0.000000 33.147579
RightShoulder -15.903753 18.043951 -24.158115
RightArm -11.333401 -17.900888 68.227788
RightForeArm -25.971957 -0.000000 19.809690
RightHand -5.630627 -0.000000 3.040745
RightHandThumb1 -24.326973 -0.000000 -32.862282
LeftUpLeg -135.260156 11.109094 -39.325671
LeftLeg 92.210134 -0.000000 -0.000000
LeftFoot 39.842250 18.695272 -8.512478
LeftToeBase 3.047142 -0.000000 -0.000000
RightUpLeg -22.142700 -7.405886 -18.718662
RightLeg 42.241371 -0.000000 -0.000000
RightFoot -22.827629 -22.247218 -4.493517
RightToeBase 0.534619 -0.000000 -0.000000
391
root -8.635640 32.238304 -7.286524 8.447082 14.744331 27.959173
Spine 33.296592 -11.546265 -30.993737
Head -48.348478 4.412816 15.746973
LeftShoulder 18.379426 -10.223991 10.359390
LeftArm 33.474564 -36.802152 -64.570972
LeftForeArm -64.163152 0.000000 13.510290
LeftHand -17.389888 -0.000000 -37.685152
LeftHandThumb1 -26.253704 0.000000 33.147579
RightShoulder -15.892849 17.977665 -24.175319
RightArm -11.477689 -17.463544 67.831682
RightForeArm -26.069003 -0.000000 19.761697
RightHand -5.596513 -0.000000 3.153292
RightHandThumb1 -24.326973 -0.000000 -32.862282
LeftUpLeg -135.486644 11.057888 -39.235458
LeftLeg 91.326196 -0.000000 -0.000000
LeftFoot 39.914931 18.639247 -8.236935
LeftToeBase 3.038049 -0.000000 -0.000000
RightUpLeg -22.055843 -7.471823 -18.960840
RightLeg 42.194881 -0.000000 -0.000000
RightFoot -22.827859 -22.313290 -4.459076
RightToeBase 0.509132 -0.000000 -0.000000
